<svg width="1400" height="980" viewBox="0 0 1400 980" fill="none" xmlns="http://www.w3.org/2000/svg">
  <defs>
    <linearGradient id="bg" x1="0" y1="0" x2="1400" y2="980" gradientUnits="userSpaceOnUse">
      <stop stop-color="#F6F7FB"/>
      <stop offset="1" stop-color="#EEF1F6"/>
    </linearGradient>
    <linearGradient id="bar" x1="0" y1="0" x2="1" y2="1">
      <stop stop-color="#34D399"/>
      <stop offset="1" stop-color="#10B981"/>
    </linearGradient>
    <style>
      .title { font: 700 30px 'Segoe UI', 'PingFang SC', 'Microsoft YaHei', sans-serif; fill: #1F2937; }
      .h2 { font: 700 24px 'Segoe UI', 'PingFang SC', 'Microsoft YaHei', sans-serif; fill: #243244; }
      .h3 { font: 700 18px 'Segoe UI', 'PingFang SC', 'Microsoft YaHei', sans-serif; fill: #344256; }
      .p { font: 500 16px 'Segoe UI', 'PingFang SC', 'Microsoft YaHei', sans-serif; fill: #4B5563; }
      .small { font: 500 14px 'Segoe UI', 'PingFang SC', 'Microsoft YaHei', sans-serif; fill: #6B7280; }
      .num { font: 700 44px 'Segoe UI', 'PingFang SC', 'Microsoft YaHei', sans-serif; fill: #111827; }
      .card { fill: #FFFFFF; stroke: #D9E1EB; stroke-width: 2; }
      .badge { fill: #F7FAFC; stroke: #DFE7F2; stroke-width: 1.5; }
      .line { stroke: #E5ECF4; stroke-width: 1; stroke-dasharray: 5 5; }
    </style>
  </defs>

  <rect width="1400" height="980" fill="url(#bg)"/>

  <rect x="24" y="24" width="780" height="360" rx="18" class="card"/>
  <rect x="820" y="24" width="556" height="360" rx="18" class="card"/>

  <rect x="24" y="404" width="440" height="58" rx="14" class="card"/>
  <rect x="480" y="404" width="440" height="58" rx="14" class="card"/>
  <rect x="936" y="404" width="440" height="58" rx="14" class="card"/>

  <rect x="24" y="478" width="440" height="140" rx="14" class="card"/>
  <rect x="480" y="478" width="440" height="140" rx="14" class="card"/>
  <rect x="936" y="478" width="440" height="140" rx="14" class="card"/>

  <rect x="24" y="638" width="560" height="260" rx="14" class="card"/>
  <rect x="600" y="638" width="776" height="260" rx="14" class="card"/>

  <rect x="24" y="914" width="676" height="56" rx="14" class="card"/>
  <rect x="716" y="914" width="660" height="56" rx="14" class="card"/>

  <circle cx="94" cy="112" r="36" fill="#D1FAE5" stroke="#10B981"/>
  <text x="94" y="120" text-anchor="middle" class="h2">Y</text>

  <text x="148" y="94" class="title">Yuki-zik</text>
  <text x="148" y="128" class="p">@Yuki-zik · 0 关注者 · 0 关注中</text>
  <text x="148" y="164" class="small">Auto-generated bootstrap report. Weekly workflow will ref…</text>

  <text x="742" y="206" class="h3" text-anchor="end">共 0 次贡献</text>
  <text x="742" y="234" class="small" text-anchor="end">仅 2026 年</text>

  <rect x="58" y="190" width="700" height="170" rx="12" fill="#F8FAFD" stroke="#E3EAF4"/>
  <text x="78" y="220" class="small">1月</text>
  <rect x="78" y="238" width="10" height="10" rx="2" fill="#E6EDF3"/><rect x="78" y="251" width="10" height="10" rx="2" fill="#E6EDF3"/><rect x="78" y="264" width="10" height="10" rx="2" fill="#E6EDF3"/><rect x="78" y="277" width="10" height="10" rx="2" fill="#E6EDF3"/><rect x="78" y="290" width="10" height="10" rx="2" fill="#E6EDF3"/><rect x="78" y="303" width="10" height="10" rx="2" fill="#E6EDF3"/><rect x="78" y="316" width="10" height="10" rx="2" fill="#E6EDF3"/><rect x="91" y="238" width="10" height="10" rx="2" fill="#E6EDF3"/><rect x="91" y="251" width="10" height="10" rx="2" fill="#E6EDF3"/><rect x="91" y="264" width="10" height="10" rx="2" fill="#E6EDF3"/><rect x="91" y="277" width="10" height="10" rx="2" fill="#E6EDF3"/><rect x="91" y="290" width="10" height="10" rx="2" fill="#E6EDF3"/><rect x="91" y="303" width="10" height="10" rx="2" fill="#E6EDF3"/><rect x="91" y="316" width="10" height="10" rx="2" fill="#E6EDF3"/><rect x="104" y="238" width="10" height="10" rx="2" fill="#E6EDF3"/><rect x="104" y="251" width="10" height="10" rx="2" fill="#E6EDF3"/><rect x="104" y="264" width="10" height="10" rx="2" fill="#E6EDF3"/><rect x="104" y="277" width="10" height="10" rx="2" fill="#E6EDF3"/><rect x="104" y="290" width="10" height="10" rx="2" fill="#E6EDF3"/><rect x="104" y="303" width="10" height="10" rx="2" fill="#E6EDF3"/><rect x="104" y="316" width="10" height="10" rx="2" fill="#E6EDF3"/><rect x="117" y="238" width="10" height="10" rx="2" fill="#E6EDF3"/><rect x="117" y="251" width="10" height="10" rx="2" fill="#E6EDF3"/><rect x="117" y="264" width="10" height="10" rx="2" fill="#E6EDF3"/><rect x="117" y="277" width="10" height="10" rx="2" fill="#E6EDF3"/><rect x="117" y="290" width="10" height="10" rx="2" fill="#E6EDF3"/><rect x="117" y="303" width="10" height="10" rx="2" fill="#E6EDF3"/><rect x="117" y="316" width="10" height="10" rx="2" fill="#E6EDF3"/><rect x="130" y="238" width="10" height="10" rx="2" fill="#E6EDF3"/><rect x="130" y="251" width="10" height="10" rx="2" fill="#E6EDF3"/><rect x="130" y="264" width="10" height="10" rx="2" fill="#E6EDF3"/><rect x="130" y="277" width="10" height="10" rx="2" fill="#E6EDF3"/><rect x="130" y="290" width="10" height="10" rx="2" fill="#E6EDF3"/><rect x="130" y="303" width="10" height="10" rx="2" fill="#E6EDF3"/><rect x="130" y="316" width="10" height="10" rx="2" fill="#E6EDF3"/><rect x="143" y="238" width="10" height="10" rx="2" fill="#E6EDF3"/><rect x="143" y="251" width="10" height="10" rx="2" fill="#E6EDF3"/><rect x="143" y="264" width="10" height="10" rx="2" fill="#E6EDF3"/><rect x="143" y="277" width="10" height="10" rx="2" fill="#E6EDF3"/><rect x="143" y="290" width="10" height="10" rx="2" fill="#E6EDF3"/><rect x="143" y="303" width="10" height="10" rx="2" fill="#E6EDF3"/><rect x="143" y="316" width="10" height="10" rx="2" fill="#E6EDF3"/><rect x="156" y="238" width="10" height="10" rx="2" fill="#E6EDF3"/><rect x="156" y="251" width="10" height="10" rx="2" fill="#E6EDF3"/><rect x="156" y="264" width="10" height="10" rx="2" fill="#E6EDF3"/><rect x="156" y="277" width="10" height="10" rx="2" fill="#E6EDF3"/><rect x="156" y="290" width="10" height="10" rx="2" fill="#E6EDF3"/><rect x="156" y="303" width="10" height="10" rx="2" fill="#E6EDF3"/><rect x="156" y="316" width="10" height="10" rx="2" fill="#E6EDF3"/><rect x="169" y="238" width="10" height="10" rx="2" fill="#E6EDF3"/><rect x="169" y="251" width="10" height="10" rx="2" fill="#E6EDF3"/><rect x="169" y="264" width="10" height="10" rx="2" fill="#E6EDF3"/><rect x="169" y="277" width="10" height="10" rx="2" fill="#E6EDF3"/><rect x="169" y="290" width="10" height="10" rx="2" fill="#E6EDF3"/><rect x="169" y="303" width="10" height="10" rx="2" fill="#E6EDF3"/><rect x="169" y="316" width="10" height="10" rx="2" fill="#E6EDF3"/><rect x="182" y="238" width="10" height="10" rx="2" fill="#E6EDF3"/><rect x="182" y="251" width="10" height="10" rx="2" fill="#E6EDF3"/><rect x="182" y="264" width="10" height="10" rx="2" fill="#E6EDF3"/><rect x="182" y="277" width="10" height="10" rx="2" fill="#E6EDF3"/><rect x="182" y="290" width="10" height="10" rx="2" fill="#E6EDF3"/><rect x="182" y="303" width="10" height="10" rx="2" fill="#E6EDF3"/><rect x="182" y="316" width="10" height="10" rx="2" fill="#E6EDF3"/><rect x="195" y="238" width="10" height="10" rx="2" fill="#E6EDF3"/><rect x="195" y="251" width="10" height="10" rx="2" fill="#E6EDF3"/><rect x="195" y="264" width="10" height="10" rx="2" fill="#E6EDF3"/><rect x="195" y="277" width="10" height="10" rx="2" fill="#E6EDF3"/><rect x="195" y="290" width="10" height="10" rx="2" fill="#E6EDF3"/><rect x="195" y="303" width="10" height="10" rx="2" fill="#E6EDF3"/><rect x="195" y="316" width="10" height="10" rx="2" fill="#E6EDF3"/><rect x="208" y="238" width="10" height="10" rx="2" fill="#E6EDF3"/><rect x="208" y="251" width="10" height="10" rx="2" fill="#E6EDF3"/><rect x="208" y="264" width="10" height="10" rx="2" fill="#E6EDF3"/><rect x="208" y="277" width="10" height="10" rx="2" fill="#E6EDF3"/><rect x="208" y="290" width="10" height="10" rx="2" fill="#E6EDF3"/><rect x="208" y="303" width="10" height="10" rx="2" fill="#E6EDF3"/><rect x="208" y="316" width="10" height="10" rx="2" fill="#E6EDF3"/><rect x="221" y="238" width="10" height="10" rx="2" fill="#E6EDF3"/><rect x="221" y="251" width="10" height="10" rx="2" fill="#E6EDF3"/><rect x="221" y="264" width="10" height="10" rx="2" fill="#E6EDF3"/><rect x="221" y="277" width="10" height="10" rx="2" fill="#E6EDF3"/><rect x="221" y="290" width="10" height="10" rx="2" fill="#E6EDF3"/><rect x="221" y="303" width="10" height="10" rx="2" fill="#E6EDF3"/><rect x="221" y="316" width="10" height="10" rx="2" fill="#E6EDF3"/><rect x="234" y="238" width="10" height="10" rx="2" fill="#E6EDF3"/><rect x="234" y="251" width="10" height="10" rx="2" fill="#E6EDF3"/><rect x="234" y="264" width="10" height="10" rx="2" fill="#E6EDF3"/><rect x="234" y="277" width="10" height="10" rx="2" fill="#E6EDF3"/><rect x="234" y="290" width="10" height="10" rx="2" fill="#E6EDF3"/><rect x="234" y="303" width="10" height="10" rx="2" fill="#E6EDF3"/><rect x="234" y="316" width="10" height="10" rx="2" fill="#E6EDF3"/><rect x="247" y="238" width="10" height="10" rx="2" fill="#E6EDF3"/><rect x="247" y="251" width="10" height="10" rx="2" fill="#E6EDF3"/><rect x="247" y="264" width="10" height="10" rx="2" fill="#E6EDF3"/><rect x="247" y="277" width="10" height="10" rx="2" fill="#E6EDF3"/><rect x="247" y="290" width="10" height="10" rx="2" fill="#E6EDF3"/><rect x="247" y="303" width="10" height="10" rx="2" fill="#E6EDF3"/><rect x="247" y="316" width="10" height="10" rx="2" fill="#E6EDF3"/><rect x="260" y="238" width="10" height="10" rx="2" fill="#E6EDF3"/><rect x="260" y="251" width="10" height="10" rx="2" fill="#E6EDF3"/><rect x="260" y="264" width="10" height="10" rx="2" fill="#E6EDF3"/><rect x="260" y="277" width="10" height="10" rx="2" fill="#E6EDF3"/><rect x="260" y="290" width="10" height="10" rx="2" fill="#E6EDF3"/><rect x="260" y="303" width="10" height="10" rx="2" fill="#E6EDF3"/><rect x="260" y="316" width="10" height="10" rx="2" fill="#E6EDF3"/><rect x="273" y="238" width="10" height="10" rx="2" fill="#E6EDF3"/><rect x="273" y="251" width="10" height="10" rx="2" fill="#E6EDF3"/><rect x="273" y="264" width="10" height="10" rx="2" fill="#E6EDF3"/><rect x="273" y="277" width="10" height="10" rx="2" fill="#E6EDF3"/><rect x="273" y="290" width="10" height="10" rx="2" fill="#E6EDF3"/><rect x="273" y="303" width="10" height="10" rx="2" fill="#E6EDF3"/><rect x="273" y="316" width="10" height="10" rx="2" fill="#E6EDF3"/><rect x="286" y="238" width="10" height="10" rx="2" fill="#E6EDF3"/><rect x="286" y="251" width="10" height="10" rx="2" fill="#E6EDF3"/><rect x="286" y="264" width="10" height="10" rx="2" fill="#E6EDF3"/><rect x="286" y="277" width="10" height="10" rx="2" fill="#E6EDF3"/><rect x="286" y="290" width="10" height="10" rx="2" fill="#E6EDF3"/><rect x="286" y="303" width="10" height="10" rx="2" fill="#E6EDF3"/><rect x="286" y="316" width="10" height="10" rx="2" fill="#E6EDF3"/><rect x="299" y="238" width="10" height="10" rx="2" fill="#E6EDF3"/><rect x="299" y="251" width="10" height="10" rx="2" fill="#E6EDF3"/><rect x="299" y="264" width="10" height="10" rx="2" fill="#E6EDF3"/><rect x="299" y="277" width="10" height="10" rx="2" fill="#E6EDF3"/><rect x="299" y="290" width="10" height="10" rx="2" fill="#E6EDF3"/><rect x="299" y="303" width="10" height="10" rx="2" fill="#E6EDF3"/><rect x="299" y="316" width="10" height="10" rx="2" fill="#E6EDF3"/><rect x="312" y="238" width="10" height="10" rx="2" fill="#E6EDF3"/><rect x="312" y="251" width="10" height="10" rx="2" fill="#E6EDF3"/><rect x="312" y="264" width="10" height="10" rx="2" fill="#E6EDF3"/><rect x="312" y="277" width="10" height="10" rx="2" fill="#E6EDF3"/><rect x="312" y="290" width="10" height="10" rx="2" fill="#E6EDF3"/><rect x="312" y="303" width="10" height="10" rx="2" fill="#E6EDF3"/><rect x="312" y="316" width="10" height="10" rx="2" fill="#E6EDF3"/><rect x="325" y="238" width="10" height="10" rx="2" fill="#E6EDF3"/><rect x="325" y="251" width="10" height="10" rx="2" fill="#E6EDF3"/><rect x="325" y="264" width="10" height="10" rx="2" fill="#E6EDF3"/><rect x="325" y="277" width="10" height="10" rx="2" fill="#E6EDF3"/><rect x="325" y="290" width="10" height="10" rx="2" fill="#E6EDF3"/><rect x="325" y="303" width="10" height="10" rx="2" fill="#E6EDF3"/><rect x="325" y="316" width="10" height="10" rx="2" fill="#E6EDF3"/><rect x="338" y="238" width="10" height="10" rx="2" fill="#E6EDF3"/><rect x="338" y="251" width="10" height="10" rx="2" fill="#E6EDF3"/><rect x="338" y="264" width="10" height="10" rx="2" fill="#E6EDF3"/><rect x="338" y="277" width="10" height="10" rx="2" fill="#E6EDF3"/><rect x="338" y="290" width="10" height="10" rx="2" fill="#E6EDF3"/><rect x="338" y="303" width="10" height="10" rx="2" fill="#E6EDF3"/><rect x="338" y="316" width="10" height="10" rx="2" fill="#E6EDF3"/><rect x="351" y="238" width="10" height="10" rx="2" fill="#E6EDF3"/><rect x="351" y="251" width="10" height="10" rx="2" fill="#E6EDF3"/><rect x="351" y="264" width="10" height="10" rx="2" fill="#E6EDF3"/><rect x="351" y="277" width="10" height="10" rx="2" fill="#E6EDF3"/><rect x="351" y="290" width="10" height="10" rx="2" fill="#E6EDF3"/><rect x="351" y="303" width="10" height="10" rx="2" fill="#E6EDF3"/><rect x="351" y="316" width="10" height="10" rx="2" fill="#E6EDF3"/><rect x="364" y="238" width="10" height="10" rx="2" fill="#E6EDF3"/><rect x="364" y="251" width="10" height="10" rx="2" fill="#E6EDF3"/><rect x="364" y="264" width="10" height="10" rx="2" fill="#E6EDF3"/><rect x="364" y="277" width="10" height="10" rx="2" fill="#E6EDF3"/><rect x="364" y="290" width="10" height="10" rx="2" fill="#E6EDF3"/><rect x="364" y="303" width="10" height="10" rx="2" fill="#E6EDF3"/><rect x="364" y="316" width="10" height="10" rx="2" fill="#E6EDF3"/><rect x="377" y="238" width="10" height="10" rx="2" fill="#E6EDF3"/><rect x="377" y="251" width="10" height="10" rx="2" fill="#E6EDF3"/><rect x="377" y="264" width="10" height="10" rx="2" fill="#E6EDF3"/><rect x="377" y="277" width="10" height="10" rx="2" fill="#E6EDF3"/><rect x="377" y="290" width="10" height="10" rx="2" fill="#E6EDF3"/><rect x="377" y="303" width="10" height="10" rx="2" fill="#E6EDF3"/><rect x="377" y="316" width="10" height="10" rx="2" fill="#E6EDF3"/><rect x="390" y="238" width="10" height="10" rx="2" fill="#E6EDF3"/><rect x="390" y="251" width="10" height="10" rx="2" fill="#E6EDF3"/><rect x="390" y="264" width="10" height="10" rx="2" fill="#E6EDF3"/><rect x="390" y="277" width="10" height="10" rx="2" fill="#E6EDF3"/><rect x="390" y="290" width="10" height="10" rx="2" fill="#E6EDF3"/><rect x="390" y="303" width="10" height="10" rx="2" fill="#E6EDF3"/><rect x="390" y="316" width="10" height="10" rx="2" fill="#E6EDF3"/><rect x="403" y="238" width="10" height="10" rx="2" fill="#E6EDF3"/><rect x="403" y="251" width="10" height="10" rx="2" fill="#E6EDF3"/><rect x="403" y="264" width="10" height="10" rx="2" fill="#E6EDF3"/><rect x="403" y="277" width="10" height="10" rx="2" fill="#E6EDF3"/><rect x="403" y="290" width="10" height="10" rx="2" fill="#E6EDF3"/><rect x="403" y="303" width="10" height="10" rx="2" fill="#E6EDF3"/><rect x="403" y="316" width="10" height="10" rx="2" fill="#E6EDF3"/><rect x="416" y="238" width="10" height="10" rx="2" fill="#E6EDF3"/><rect x="416" y="251" width="10" height="10" rx="2" fill="#E6EDF3"/><rect x="416" y="264" width="10" height="10" rx="2" fill="#E6EDF3"/><rect x="416" y="277" width="10" height="10" rx="2" fill="#E6EDF3"/><rect x="416" y="290" width="10" height="10" rx="2" fill="#E6EDF3"/><rect x="416" y="303" width="10" height="10" rx="2" fill="#E6EDF3"/><rect x="416" y="316" width="10" height="10" rx="2" fill="#E6EDF3"/><rect x="429" y="238" width="10" height="10" rx="2" fill="#E6EDF3"/><rect x="429" y="251" width="10" height="10" rx="2" fill="#E6EDF3"/><rect x="429" y="264" width="10" height="10" rx="2" fill="#E6EDF3"/><rect x="429" y="277" width="10" height="10" rx="2" fill="#E6EDF3"/><rect x="429" y="290" width="10" height="10" rx="2" fill="#E6EDF3"/><rect x="429" y="303" width="10" height="10" rx="2" fill="#E6EDF3"/><rect x="429" y="316" width="10" height="10" rx="2" fill="#E6EDF3"/><rect x="442" y="238" width="10" height="10" rx="2" fill="#E6EDF3"/><rect x="442" y="251" width="10" height="10" rx="2" fill="#E6EDF3"/><rect x="442" y="264" width="10" height="10" rx="2" fill="#E6EDF3"/><rect x="442" y="277" width="10" height="10" rx="2" fill="#E6EDF3"/><rect x="442" y="290" width="10" height="10" rx="2" fill="#E6EDF3"/><rect x="442" y="303" width="10" height="10" rx="2" fill="#E6EDF3"/><rect x="442" y="316" width="10" height="10" rx="2" fill="#E6EDF3"/><rect x="455" y="238" width="10" height="10" rx="2" fill="#E6EDF3"/><rect x="455" y="251" width="10" height="10" rx="2" fill="#E6EDF3"/><rect x="455" y="264" width="10" height="10" rx="2" fill="#E6EDF3"/><rect x="455" y="277" width="10" height="10" rx="2" fill="#E6EDF3"/><rect x="455" y="290" width="10" height="10" rx="2" fill="#E6EDF3"/><rect x="455" y="303" width="10" height="10" rx="2" fill="#E6EDF3"/><rect x="455" y="316" width="10" height="10" rx="2" fill="#E6EDF3"/><rect x="468" y="238" width="10" height="10" rx="2" fill="#E6EDF3"/><rect x="468" y="251" width="10" height="10" rx="2" fill="#E6EDF3"/><rect x="468" y="264" width="10" height="10" rx="2" fill="#E6EDF3"/><rect x="468" y="277" width="10" height="10" rx="2" fill="#E6EDF3"/><rect x="468" y="290" width="10" height="10" rx="2" fill="#E6EDF3"/><rect x="468" y="303" width="10" height="10" rx="2" fill="#E6EDF3"/><rect x="468" y="316" width="10" height="10" rx="2" fill="#E6EDF3"/><rect x="481" y="238" width="10" height="10" rx="2" fill="#E6EDF3"/><rect x="481" y="251" width="10" height="10" rx="2" fill="#E6EDF3"/><rect x="481" y="264" width="10" height="10" rx="2" fill="#E6EDF3"/><rect x="481" y="277" width="10" height="10" rx="2" fill="#E6EDF3"/><rect x="481" y="290" width="10" height="10" rx="2" fill="#E6EDF3"/><rect x="481" y="303" width="10" height="10" rx="2" fill="#E6EDF3"/><rect x="481" y="316" width="10" height="10" rx="2" fill="#E6EDF3"/><rect x="494" y="238" width="10" height="10" rx="2" fill="#E6EDF3"/><rect x="494" y="251" width="10" height="10" rx="2" fill="#E6EDF3"/><rect x="494" y="264" width="10" height="10" rx="2" fill="#E6EDF3"/><rect x="494" y="277" width="10" height="10" rx="2" fill="#E6EDF3"/><rect x="494" y="290" width="10" height="10" rx="2" fill="#E6EDF3"/><rect x="494" y="303" width="10" height="10" rx="2" fill="#E6EDF3"/><rect x="494" y="316" width="10" height="10" rx="2" fill="#E6EDF3"/><rect x="507" y="238" width="10" height="10" rx="2" fill="#E6EDF3"/><rect x="507" y="251" width="10" height="10" rx="2" fill="#E6EDF3"/><rect x="507" y="264" width="10" height="10" rx="2" fill="#E6EDF3"/><rect x="507" y="277" width="10" height="10" rx="2" fill="#E6EDF3"/><rect x="507" y="290" width="10" height="10" rx="2" fill="#E6EDF3"/><rect x="507" y="303" width="10" height="10" rx="2" fill="#E6EDF3"/><rect x="507" y="316" width="10" height="10" rx="2" fill="#E6EDF3"/><rect x="520" y="238" width="10" height="10" rx="2" fill="#E6EDF3"/><rect x="520" y="251" width="10" height="10" rx="2" fill="#E6EDF3"/><rect x="520" y="264" width="10" height="10" rx="2" fill="#E6EDF3"/><rect x="520" y="277" width="10" height="10" rx="2" fill="#E6EDF3"/><rect x="520" y="290" width="10" height="10" rx="2" fill="#E6EDF3"/><rect x="520" y="303" width="10" height="10" rx="2" fill="#E6EDF3"/><rect x="520" y="316" width="10" height="10" rx="2" fill="#E6EDF3"/><rect x="533" y="238" width="10" height="10" rx="2" fill="#E6EDF3"/><rect x="533" y="251" width="10" height="10" rx="2" fill="#E6EDF3"/><rect x="533" y="264" width="10" height="10" rx="2" fill="#E6EDF3"/><rect x="533" y="277" width="10" height="10" rx="2" fill="#E6EDF3"/><rect x="533" y="290" width="10" height="10" rx="2" fill="#E6EDF3"/><rect x="533" y="303" width="10" height="10" rx="2" fill="#E6EDF3"/><rect x="533" y="316" width="10" height="10" rx="2" fill="#E6EDF3"/><rect x="546" y="238" width="10" height="10" rx="2" fill="#E6EDF3"/><rect x="546" y="251" width="10" height="10" rx="2" fill="#E6EDF3"/><rect x="546" y="264" width="10" height="10" rx="2" fill="#E6EDF3"/><rect x="546" y="277" width="10" height="10" rx="2" fill="#E6EDF3"/><rect x="546" y="290" width="10" height="10" rx="2" fill="#E6EDF3"/><rect x="546" y="303" width="10" height="10" rx="2" fill="#E6EDF3"/><rect x="546" y="316" width="10" height="10" rx="2" fill="#E6EDF3"/><rect x="559" y="238" width="10" height="10" rx="2" fill="#E6EDF3"/><rect x="559" y="251" width="10" height="10" rx="2" fill="#E6EDF3"/><rect x="559" y="264" width="10" height="10" rx="2" fill="#E6EDF3"/><rect x="559" y="277" width="10" height="10" rx="2" fill="#E6EDF3"/><rect x="559" y="290" width="10" height="10" rx="2" fill="#E6EDF3"/><rect x="559" y="303" width="10" height="10" rx="2" fill="#E6EDF3"/><rect x="559" y="316" width="10" height="10" rx="2" fill="#E6EDF3"/><rect x="572" y="238" width="10" height="10" rx="2" fill="#E6EDF3"/><rect x="572" y="251" width="10" height="10" rx="2" fill="#E6EDF3"/><rect x="572" y="264" width="10" height="10" rx="2" fill="#E6EDF3"/><rect x="572" y="277" width="10" height="10" rx="2" fill="#E6EDF3"/><rect x="572" y="290" width="10" height="10" rx="2" fill="#E6EDF3"/><rect x="572" y="303" width="10" height="10" rx="2" fill="#E6EDF3"/><rect x="572" y="316" width="10" height="10" rx="2" fill="#E6EDF3"/><rect x="585" y="238" width="10" height="10" rx="2" fill="#E6EDF3"/><rect x="585" y="251" width="10" height="10" rx="2" fill="#E6EDF3"/><rect x="585" y="264" width="10" height="10" rx="2" fill="#E6EDF3"/><rect x="585" y="277" width="10" height="10" rx="2" fill="#E6EDF3"/><rect x="585" y="290" width="10" height="10" rx="2" fill="#E6EDF3"/><rect x="585" y="303" width="10" height="10" rx="2" fill="#E6EDF3"/><rect x="585" y="316" width="10" height="10" rx="2" fill="#E6EDF3"/><rect x="598" y="238" width="10" height="10" rx="2" fill="#E6EDF3"/><rect x="598" y="251" width="10" height="10" rx="2" fill="#E6EDF3"/><rect x="598" y="264" width="10" height="10" rx="2" fill="#E6EDF3"/><rect x="598" y="277" width="10" height="10" rx="2" fill="#E6EDF3"/><rect x="598" y="290" width="10" height="10" rx="2" fill="#E6EDF3"/><rect x="598" y="303" width="10" height="10" rx="2" fill="#E6EDF3"/><rect x="598" y="316" width="10" height="10" rx="2" fill="#E6EDF3"/><rect x="611" y="238" width="10" height="10" rx="2" fill="#E6EDF3"/><rect x="611" y="251" width="10" height="10" rx="2" fill="#E6EDF3"/><rect x="611" y="264" width="10" height="10" rx="2" fill="#E6EDF3"/><rect x="611" y="277" width="10" height="10" rx="2" fill="#E6EDF3"/><rect x="611" y="290" width="10" height="10" rx="2" fill="#E6EDF3"/><rect x="611" y="303" width="10" height="10" rx="2" fill="#E6EDF3"/><rect x="611" y="316" width="10" height="10" rx="2" fill="#E6EDF3"/><rect x="624" y="238" width="10" height="10" rx="2" fill="#E6EDF3"/><rect x="624" y="251" width="10" height="10" rx="2" fill="#E6EDF3"/><rect x="624" y="264" width="10" height="10" rx="2" fill="#E6EDF3"/><rect x="624" y="277" width="10" height="10" rx="2" fill="#E6EDF3"/><rect x="624" y="290" width="10" height="10" rx="2" fill="#E6EDF3"/><rect x="624" y="303" width="10" height="10" rx="2" fill="#E6EDF3"/><rect x="624" y="316" width="10" height="10" rx="2" fill="#E6EDF3"/><rect x="637" y="238" width="10" height="10" rx="2" fill="#E6EDF3"/><rect x="637" y="251" width="10" height="10" rx="2" fill="#E6EDF3"/><rect x="637" y="264" width="10" height="10" rx="2" fill="#E6EDF3"/><rect x="637" y="277" width="10" height="10" rx="2" fill="#E6EDF3"/><rect x="637" y="290" width="10" height="10" rx="2" fill="#E6EDF3"/><rect x="637" y="303" width="10" height="10" rx="2" fill="#E6EDF3"/><rect x="637" y="316" width="10" height="10" rx="2" fill="#E6EDF3"/><rect x="650" y="238" width="10" height="10" rx="2" fill="#E6EDF3"/><rect x="650" y="251" width="10" height="10" rx="2" fill="#E6EDF3"/><rect x="650" y="264" width="10" height="10" rx="2" fill="#E6EDF3"/><rect x="650" y="277" width="10" height="10" rx="2" fill="#E6EDF3"/><rect x="650" y="290" width="10" height="10" rx="2" fill="#E6EDF3"/><rect x="650" y="303" width="10" height="10" rx="2" fill="#E6EDF3"/><rect x="650" y="316" width="10" height="10" rx="2" fill="#E6EDF3"/><rect x="663" y="238" width="10" height="10" rx="2" fill="#E6EDF3"/><rect x="663" y="251" width="10" height="10" rx="2" fill="#E6EDF3"/><rect x="663" y="264" width="10" height="10" rx="2" fill="#E6EDF3"/><rect x="663" y="277" width="10" height="10" rx="2" fill="#E6EDF3"/><rect x="663" y="290" width="10" height="10" rx="2" fill="#E6EDF3"/><rect x="663" y="303" width="10" height="10" rx="2" fill="#E6EDF3"/><rect x="663" y="316" width="10" height="10" rx="2" fill="#E6EDF3"/><rect x="676" y="238" width="10" height="10" rx="2" fill="#E6EDF3"/><rect x="676" y="251" width="10" height="10" rx="2" fill="#E6EDF3"/><rect x="676" y="264" width="10" height="10" rx="2" fill="#E6EDF3"/><rect x="676" y="277" width="10" height="10" rx="2" fill="#E6EDF3"/><rect x="676" y="290" width="10" height="10" rx="2" fill="#E6EDF3"/><rect x="676" y="303" width="10" height="10" rx="2" fill="#E6EDF3"/><rect x="676" y="316" width="10" height="10" rx="2" fill="#E6EDF3"/><rect x="689" y="238" width="10" height="10" rx="2" fill="#E6EDF3"/><rect x="689" y="251" width="10" height="10" rx="2" fill="#E6EDF3"/><rect x="689" y="264" width="10" height="10" rx="2" fill="#E6EDF3"/><rect x="689" y="277" width="10" height="10" rx="2" fill="#E6EDF3"/><rect x="689" y="290" width="10" height="10" rx="2" fill="#E6EDF3"/><rect x="689" y="303" width="10" height="10" rx="2" fill="#E6EDF3"/><rect x="689" y="316" width="10" height="10" rx="2" fill="#E6EDF3"/><rect x="702" y="238" width="10" height="10" rx="2" fill="#E6EDF3"/><rect x="702" y="251" width="10" height="10" rx="2" fill="#E6EDF3"/><rect x="702" y="264" width="10" height="10" rx="2" fill="#E6EDF3"/><rect x="702" y="277" width="10" height="10" rx="2" fill="#E6EDF3"/><rect x="702" y="290" width="10" height="10" rx="2" fill="#E6EDF3"/><rect x="702" y="303" width="10" height="10" rx="2" fill="#E6EDF3"/><rect x="702" y="316" width="10" height="10" rx="2" fill="#E6EDF3"/><rect x="715" y="238" width="10" height="10" rx="2" fill="#E6EDF3"/><rect x="715" y="251" width="10" height="10" rx="2" fill="#E6EDF3"/><rect x="715" y="264" width="10" height="10" rx="2" fill="#E6EDF3"/><rect x="715" y="277" width="10" height="10" rx="2" fill="#E6EDF3"/><rect x="715" y="290" width="10" height="10" rx="2" fill="#E6EDF3"/><rect x="715" y="303" width="10" height="10" rx="2" fill="#E6EDF3"/><rect x="715" y="316" width="10" height="10" rx="2" fill="#E6EDF3"/><rect x="728" y="238" width="10" height="10" rx="2" fill="#E6EDF3"/><rect x="728" y="251" width="10" height="10" rx="2" fill="#E6EDF3"/><rect x="728" y="264" width="10" height="10" rx="2" fill="#E6EDF3"/><rect x="728" y="277" width="10" height="10" rx="2" fill="#E6EDF3"/><rect x="728" y="290" width="10" height="10" rx="2" fill="#E6EDF3"/><rect x="728" y="303" width="10" height="10" rx="2" fill="#E6EDF3"/><rect x="728" y="316" width="10" height="10" rx="2" fill="#E6EDF3"/><rect x="741" y="238" width="10" height="10" rx="2" fill="#E6EDF3"/><rect x="741" y="251" width="10" height="10" rx="2" fill="#E6EDF3"/><rect x="741" y="264" width="10" height="10" rx="2" fill="#E6EDF3"/><rect x="741" y="277" width="10" height="10" rx="2" fill="#E6EDF3"/><rect x="741" y="290" width="10" height="10" rx="2" fill="#E6EDF3"/><rect x="741" y="303" width="10" height="10" rx="2" fill="#E6EDF3"/><rect x="741" y="316" width="10" height="10" rx="2" fill="#E6EDF3"/>

  <text x="840" y="84" class="h2">AI 年度总结</text>
  <text x="840" y="124" class="p">??????????????????? GitHub ?????????</text>
  <text x="840" y="158" class="small">模式：规则降级</text>
  
        <text x="840" y="214" class="h3">????</text>
        <text x="840" y="248" class="small">?????????????</text>
      
        <text x="840" y="296" class="h3">???</text>
        <text x="840" y="330" class="small">???? Secrets ?? GH_STATS_TOKEN ????? yearly report workflow?</text>
      
        <text x="840" y="378" class="h3">????</text>
        <text x="840" y="412" class="small">workflow ??????????? SVG ? JSON ???</text>
      

  <text x="44" y="442" class="h3">这一年的高光月份</text>
  <text x="402" y="442" class="h3" text-anchor="end">2026 年 -- 月</text>

  <text x="500" y="442" class="h3">日均贡献</text>
  <text x="900" y="442" class="h3" text-anchor="end">0</text>

  <text x="956" y="442" class="h3">2026 年碰过的 Issues</text>
  <text x="1356" y="442" class="h3" text-anchor="end">0</text>

  <text x="44" y="520" class="h3">你最活跃的一天</text>
  <text x="44" y="578" class="num">0</text>
  <text x="132" y="578" class="p">次贡献</text>
  <text x="44" y="608" class="p">--</text>

  <text x="500" y="520" class="h3">最长连续打卡</text>
  <text x="500" y="578" class="num">0</text>
  <text x="592" y="578" class="p">天</text>
  <text x="500" y="608" class="p">--</text>

  <text x="956" y="520" class="h3">休息最久的一段时间</text>
  <text x="956" y="578" class="num">44</text>
  <text x="1018" y="578" class="p">天</text>
  <text x="956" y="608" class="p">1 月 1 日 - 2 月 13 日</text>

  <text x="44" y="680" class="h2">2026 年你在折腾的仓库</text>
  <rect x="402" y="654" width="80" height="34" rx="10" class="badge"/>
  <text x="442" y="677" class="small" text-anchor="middle">最出圈的</text>
  <rect x="490" y="654" width="80" height="34" rx="10" class="badge"/>
  <text x="530" y="677" class="small" text-anchor="middle">新开的</text>
  
        <text x="44" y="735" class="h3">??????</text>
        <text x="44" y="762" class="small">Stars 0 · Fork 0 · Commits 0</text>
        <text x="44" y="790" class="p">???????????</text>
      
        <text x="44" y="827" class="h3">?? workflow ?????</text>
        <text x="44" y="854" class="small">Stars 0 · Fork 0 · Commits 0</text>
        <text x="44" y="882" class="p">?? GH_STATS_TOKEN ??????</text>
      
        <text x="44" y="919" class="h3">????????</text>
        <text x="44" y="946" class="small">Stars 0 · Fork 0 · Commits 0</text>
        <text x="44" y="974" class="p">? PAT ??? GitHub ???????</text>
      

  <text x="620" y="680" class="h2">2026 年你最常用的语言</text>
  
        <text x="620" y="734" class="h3">#1 N/A</text>
        <rect x="760" y="716" width="576" height="10" rx="5" fill="#E6EDF5"/>
        <rect x="760" y="716" width="8" height="10" rx="5" fill="#1F2937"/>
        <text x="1340" y="734" class="small" text-anchor="end">0.0%</text>
      
        <text x="620" y="772" class="h3">#2 N/A</text>
        <rect x="760" y="754" width="576" height="10" rx="5" fill="#E6EDF5"/>
        <rect x="760" y="754" width="8" height="10" rx="5" fill="#1F2937"/>
        <text x="1340" y="772" class="small" text-anchor="end">0.0%</text>
      
        <text x="620" y="810" class="h3">#3 N/A</text>
        <rect x="760" y="792" width="576" height="10" rx="5" fill="#E6EDF5"/>
        <rect x="760" y="792" width="8" height="10" rx="5" fill="#1F2937"/>
        <text x="1340" y="810" class="small" text-anchor="end">0.0%</text>
      
        <text x="620" y="848" class="h3">#4 N/A</text>
        <rect x="760" y="830" width="576" height="10" rx="5" fill="#E6EDF5"/>
        <rect x="760" y="830" width="8" height="10" rx="5" fill="#1F2937"/>
        <text x="1340" y="848" class="small" text-anchor="end">0.0%</text>
      
        <text x="620" y="886" class="h3">#5 N/A</text>
        <rect x="760" y="868" width="576" height="10" rx="5" fill="#E6EDF5"/>
        <rect x="760" y="868" width="8" height="10" rx="5" fill="#1F2937"/>
        <text x="1340" y="886" class="small" text-anchor="end">0.0%</text>
      

  <text x="44" y="948" class="h3">2026 一年的起伏轨迹</text>
  <text x="680" y="948" class="small" text-anchor="end">总贡献 0</text>
  <line x1="44" y1="960" x2="660" y2="960" class="line"/>
  
        <rect x="70" y="960" width="30" height="0" rx="6" fill="#6EE7B7"/>
        <text x="85" y="976" class="small" text-anchor="middle">1月</text>
      
        <rect x="113" y="960" width="30" height="0" rx="6" fill="#6EE7B7"/>
        <text x="128" y="976" class="small" text-anchor="middle">2月</text>
      
        <rect x="156" y="960" width="30" height="0" rx="6" fill="#6EE7B7"/>
        <text x="171" y="976" class="small" text-anchor="middle">3月</text>
      
        <rect x="199" y="960" width="30" height="0" rx="6" fill="#6EE7B7"/>
        <text x="214" y="976" class="small" text-anchor="middle">4月</text>
      
        <rect x="242" y="960" width="30" height="0" rx="6" fill="#6EE7B7"/>
        <text x="257" y="976" class="small" text-anchor="middle">5月</text>
      
        <rect x="285" y="960" width="30" height="0" rx="6" fill="#6EE7B7"/>
        <text x="300" y="976" class="small" text-anchor="middle">6月</text>
      
        <rect x="328" y="960" width="30" height="0" rx="6" fill="#6EE7B7"/>
        <text x="343" y="976" class="small" text-anchor="middle">7月</text>
      
        <rect x="371" y="960" width="30" height="0" rx="6" fill="#6EE7B7"/>
        <text x="386" y="976" class="small" text-anchor="middle">8月</text>
      
        <rect x="414" y="960" width="30" height="0" rx="6" fill="#6EE7B7"/>
        <text x="429" y="976" class="small" text-anchor="middle">9月</text>
      
        <rect x="457" y="960" width="30" height="0" rx="6" fill="#6EE7B7"/>
        <text x="472" y="976" class="small" text-anchor="middle">10月</text>
      
        <rect x="500" y="960" width="30" height="0" rx="6" fill="#6EE7B7"/>
        <text x="515" y="976" class="small" text-anchor="middle">11月</text>
      
        <rect x="543" y="960" width="30" height="0" rx="6" fill="#6EE7B7"/>
        <text x="558" y="976" class="small" text-anchor="middle">12月</text>
      

  <text x="736" y="948" class="h3">2026 你一周里的节奏</text>
  <text x="1360" y="948" class="small" text-anchor="end">最忙：星期日（0 次贡献）</text>
  <line x1="736" y1="960" x2="1344" y2="960" class="line"/>
  
        <rect x="770" y="960" width="64" height="0" rx="6" fill="#6EE7B7"/>
        <text x="802" y="976" class="small" text-anchor="middle">日</text>
      
        <rect x="850" y="960" width="64" height="0" rx="6" fill="#6EE7B7"/>
        <text x="882" y="976" class="small" text-anchor="middle">一</text>
      
        <rect x="930" y="960" width="64" height="0" rx="6" fill="#6EE7B7"/>
        <text x="962" y="976" class="small" text-anchor="middle">二</text>
      
        <rect x="1010" y="960" width="64" height="0" rx="6" fill="#6EE7B7"/>
        <text x="1042" y="976" class="small" text-anchor="middle">三</text>
      
        <rect x="1090" y="960" width="64" height="0" rx="6" fill="#6EE7B7"/>
        <text x="1122" y="976" class="small" text-anchor="middle">四</text>
      
        <rect x="1170" y="960" width="64" height="0" rx="6" fill="#6EE7B7"/>
        <text x="1202" y="976" class="small" text-anchor="middle">五</text>
      
        <rect x="1250" y="960" width="64" height="0" rx="6" fill="#6EE7B7"/>
        <text x="1282" y="976" class="small" text-anchor="middle">六</text>
      
</svg>