<?xml version="1.0" encoding="UTF-8"?>
<svg width="1400" height="1220" viewBox="0 0 1400 1220" fill="none" xmlns="http://www.w3.org/2000/svg">
  <defs>
    <linearGradient id="bg" x1="0" y1="0" x2="1400" y2="1220" gradientUnits="userSpaceOnUse">
      <stop stop-color="#F6F7FB"/>
      <stop offset="1" stop-color="#EEF1F6"/>
    </linearGradient>
    <linearGradient id="bar" x1="0" y1="0" x2="1" y2="1">
      <stop stop-color="#34D399"/>
      <stop offset="1" stop-color="#10B981"/>
    </linearGradient>
    <clipPath id="monthlyPlotClip"><rect x="48" y="1014" width="620" height="140" rx="6"/></clipPath>
    <clipPath id="weeklyPlotClip"><rect x="732" y="1014" width="620" height="140" rx="6"/></clipPath>
    <style>
      .title { font: 700 38px 'Segoe UI', 'PingFang SC', 'Microsoft YaHei', sans-serif; fill: #1F2937; }
      .h2 { font: 700 24px 'Segoe UI', 'PingFang SC', 'Microsoft YaHei', sans-serif; fill: #243244; }
      .h3 { font: 700 18px 'Segoe UI', 'PingFang SC', 'Microsoft YaHei', sans-serif; fill: #344256; }
      .p { font: 500 16px 'Segoe UI', 'PingFang SC', 'Microsoft YaHei', sans-serif; fill: #4B5563; }
      .small { font: 500 14px 'Segoe UI', 'PingFang SC', 'Microsoft YaHei', sans-serif; fill: #6B7280; }
      .num { font: 700 44px 'Segoe UI', 'PingFang SC', 'Microsoft YaHei', sans-serif; fill: #111827; }
      .card { fill: #FFFFFF; stroke: #D9E1EB; stroke-width: 2; }
      .badge { fill: #F7FAFC; stroke: #DFE7F2; stroke-width: 1.5; }
      .line { stroke: #E5ECF4; stroke-width: 1; stroke-dasharray: 5 5; }
    </style>
  </defs>

  <rect width="1400" height="1220" fill="url(#bg)"/>

  <rect x="24" y="24" width="804" height="360" rx="18" class="card"/>
  <rect x="844" y="24" width="532" height="360" rx="18" class="card"/>

  <rect x="24" y="400" width="440" height="58" rx="14" class="card"/>
  <rect x="480" y="400" width="440" height="58" rx="14" class="card"/>
  <rect x="936" y="400" width="440" height="58" rx="14" class="card"/>

  <rect x="24" y="474" width="440" height="140" rx="14" class="card"/>
  <rect x="480" y="474" width="440" height="140" rx="14" class="card"/>
  <rect x="936" y="474" width="440" height="140" rx="14" class="card"/>

  <rect x="24" y="630" width="580" height="300" rx="14" class="card"/>
  <rect x="620" y="630" width="756" height="300" rx="14" class="card"/>

  <rect x="24" y="946" width="668" height="250" rx="14" class="card"/>
  <rect x="708" y="946" width="668" height="250" rx="14" class="card"/>

  <circle cx="96" cy="112" r="36" fill="#D1FAE5" stroke="#10B981"/>
  <text x="96" y="120" text-anchor="middle" class="h2">Y</text>

  <text x="152" y="118" class="title">Qianli Ma</text>
  <text x="152" y="152" class="p">@Yuki-zik · 0 关注者 · 5 关注中</text>
  <text x="152" y="188" class="small">Building useful software with stable cadence.</text>

  <text x="804" y="230" class="h3" text-anchor="end">共 72 次贡献</text>
  <text x="804" y="258" class="small" text-anchor="end">仅 2025 年</text>

  <rect x="58" y="192" width="736" height="166" rx="12" fill="#F8FAFD" stroke="#E3EAF4"/>
  <text x="60" y="220" class="small">1月</text><text x="112" y="220" class="small">2月</text><text x="164" y="220" class="small">3月</text><text x="229" y="220" class="small">4月</text><text x="281" y="220" class="small">5月</text><text x="346" y="220" class="small">6月</text><text x="398" y="220" class="small">7月</text><text x="450" y="220" class="small">8月</text><text x="515" y="220" class="small">9月</text><text x="567" y="220" class="small">10月</text><text x="619" y="220" class="small">11月</text><text x="684" y="220" class="small">12月</text>
  <rect x="60" y="236" width="10" height="10" rx="2" fill="#E6EDF3"/><rect x="60" y="249" width="10" height="10" rx="2" fill="#E6EDF3"/><rect x="60" y="262" width="10" height="10" rx="2" fill="#E6EDF3"/><rect x="60" y="275" width="10" height="10" rx="2" fill="#E6EDF3"/><rect x="73" y="236" width="10" height="10" rx="2" fill="#E6EDF3"/><rect x="73" y="249" width="10" height="10" rx="2" fill="#E6EDF3"/><rect x="73" y="262" width="10" height="10" rx="2" fill="#E6EDF3"/><rect x="73" y="275" width="10" height="10" rx="2" fill="#E6EDF3"/><rect x="73" y="288" width="10" height="10" rx="2" fill="#E6EDF3"/><rect x="73" y="301" width="10" height="10" rx="2" fill="#E6EDF3"/><rect x="73" y="314" width="10" height="10" rx="2" fill="#E6EDF3"/><rect x="86" y="236" width="10" height="10" rx="2" fill="#E6EDF3"/><rect x="86" y="249" width="10" height="10" rx="2" fill="#E6EDF3"/><rect x="86" y="262" width="10" height="10" rx="2" fill="#E6EDF3"/><rect x="86" y="275" width="10" height="10" rx="2" fill="#E6EDF3"/><rect x="86" y="288" width="10" height="10" rx="2" fill="#E6EDF3"/><rect x="86" y="301" width="10" height="10" rx="2" fill="#E6EDF3"/><rect x="86" y="314" width="10" height="10" rx="2" fill="#E6EDF3"/><rect x="99" y="236" width="10" height="10" rx="2" fill="#E6EDF3"/><rect x="99" y="249" width="10" height="10" rx="2" fill="#E6EDF3"/><rect x="99" y="262" width="10" height="10" rx="2" fill="#E6EDF3"/><rect x="99" y="275" width="10" height="10" rx="2" fill="#E6EDF3"/><rect x="99" y="288" width="10" height="10" rx="2" fill="#E6EDF3"/><rect x="99" y="301" width="10" height="10" rx="2" fill="#E6EDF3"/><rect x="99" y="314" width="10" height="10" rx="2" fill="#E6EDF3"/><rect x="112" y="236" width="10" height="10" rx="2" fill="#E6EDF3"/><rect x="112" y="249" width="10" height="10" rx="2" fill="#E6EDF3"/><rect x="112" y="262" width="10" height="10" rx="2" fill="#E6EDF3"/><rect x="112" y="275" width="10" height="10" rx="2" fill="#E6EDF3"/><rect x="112" y="288" width="10" height="10" rx="2" fill="#E6EDF3"/><rect x="112" y="301" width="10" height="10" rx="2" fill="#E6EDF3"/><rect x="112" y="314" width="10" height="10" rx="2" fill="#E6EDF3"/><rect x="125" y="236" width="10" height="10" rx="2" fill="#E6EDF3"/><rect x="125" y="249" width="10" height="10" rx="2" fill="#E6EDF3"/><rect x="125" y="262" width="10" height="10" rx="2" fill="#E6EDF3"/><rect x="125" y="275" width="10" height="10" rx="2" fill="#E6EDF3"/><rect x="125" y="288" width="10" height="10" rx="2" fill="#E6EDF3"/><rect x="125" y="301" width="10" height="10" rx="2" fill="#E6EDF3"/><rect x="125" y="314" width="10" height="10" rx="2" fill="#E6EDF3"/><rect x="138" y="236" width="10" height="10" rx="2" fill="#E6EDF3"/><rect x="138" y="249" width="10" height="10" rx="2" fill="#E6EDF3"/><rect x="138" y="262" width="10" height="10" rx="2" fill="#E6EDF3"/><rect x="138" y="275" width="10" height="10" rx="2" fill="#E6EDF3"/><rect x="138" y="288" width="10" height="10" rx="2" fill="#E6EDF3"/><rect x="138" y="301" width="10" height="10" rx="2" fill="#E6EDF3"/><rect x="138" y="314" width="10" height="10" rx="2" fill="#E6EDF3"/><rect x="151" y="236" width="10" height="10" rx="2" fill="#E6EDF3"/><rect x="151" y="249" width="10" height="10" rx="2" fill="#9BE9A8"/><rect x="151" y="262" width="10" height="10" rx="2" fill="#E6EDF3"/><rect x="151" y="275" width="10" height="10" rx="2" fill="#E6EDF3"/><rect x="151" y="288" width="10" height="10" rx="2" fill="#E6EDF3"/><rect x="151" y="301" width="10" height="10" rx="2" fill="#9BE9A8"/><rect x="151" y="314" width="10" height="10" rx="2" fill="#E6EDF3"/><rect x="164" y="236" width="10" height="10" rx="2" fill="#E6EDF3"/><rect x="164" y="249" width="10" height="10" rx="2" fill="#E6EDF3"/><rect x="164" y="262" width="10" height="10" rx="2" fill="#E6EDF3"/><rect x="164" y="275" width="10" height="10" rx="2" fill="#E6EDF3"/><rect x="164" y="288" width="10" height="10" rx="2" fill="#E6EDF3"/><rect x="164" y="301" width="10" height="10" rx="2" fill="#E6EDF3"/><rect x="164" y="314" width="10" height="10" rx="2" fill="#E6EDF3"/><rect x="177" y="236" width="10" height="10" rx="2" fill="#E6EDF3"/><rect x="177" y="249" width="10" height="10" rx="2" fill="#E6EDF3"/><rect x="177" y="262" width="10" height="10" rx="2" fill="#E6EDF3"/><rect x="177" y="275" width="10" height="10" rx="2" fill="#E6EDF3"/><rect x="177" y="288" width="10" height="10" rx="2" fill="#E6EDF3"/><rect x="177" y="301" width="10" height="10" rx="2" fill="#E6EDF3"/><rect x="177" y="314" width="10" height="10" rx="2" fill="#E6EDF3"/><rect x="190" y="236" width="10" height="10" rx="2" fill="#9BE9A8"/><rect x="190" y="249" width="10" height="10" rx="2" fill="#E6EDF3"/><rect x="190" y="262" width="10" height="10" rx="2" fill="#E6EDF3"/><rect x="190" y="275" width="10" height="10" rx="2" fill="#E6EDF3"/><rect x="190" y="288" width="10" height="10" rx="2" fill="#E6EDF3"/><rect x="190" y="301" width="10" height="10" rx="2" fill="#E6EDF3"/><rect x="190" y="314" width="10" height="10" rx="2" fill="#E6EDF3"/><rect x="203" y="236" width="10" height="10" rx="2" fill="#E6EDF3"/><rect x="203" y="249" width="10" height="10" rx="2" fill="#E6EDF3"/><rect x="203" y="262" width="10" height="10" rx="2" fill="#E6EDF3"/><rect x="203" y="275" width="10" height="10" rx="2" fill="#E6EDF3"/><rect x="203" y="288" width="10" height="10" rx="2" fill="#E6EDF3"/><rect x="203" y="301" width="10" height="10" rx="2" fill="#E6EDF3"/><rect x="203" y="314" width="10" height="10" rx="2" fill="#E6EDF3"/><rect x="216" y="236" width="10" height="10" rx="2" fill="#E6EDF3"/><rect x="216" y="249" width="10" height="10" rx="2" fill="#E6EDF3"/><rect x="216" y="262" width="10" height="10" rx="2" fill="#E6EDF3"/><rect x="216" y="275" width="10" height="10" rx="2" fill="#E6EDF3"/><rect x="216" y="288" width="10" height="10" rx="2" fill="#E6EDF3"/><rect x="216" y="301" width="10" height="10" rx="2" fill="#E6EDF3"/><rect x="216" y="314" width="10" height="10" rx="2" fill="#E6EDF3"/><rect x="229" y="236" width="10" height="10" rx="2" fill="#E6EDF3"/><rect x="229" y="249" width="10" height="10" rx="2" fill="#E6EDF3"/><rect x="229" y="262" width="10" height="10" rx="2" fill="#E6EDF3"/><rect x="229" y="275" width="10" height="10" rx="2" fill="#E6EDF3"/><rect x="229" y="288" width="10" height="10" rx="2" fill="#E6EDF3"/><rect x="229" y="301" width="10" height="10" rx="2" fill="#E6EDF3"/><rect x="229" y="314" width="10" height="10" rx="2" fill="#E6EDF3"/><rect x="242" y="236" width="10" height="10" rx="2" fill="#E6EDF3"/><rect x="242" y="249" width="10" height="10" rx="2" fill="#30A14E"/><rect x="242" y="262" width="10" height="10" rx="2" fill="#9BE9A8"/><rect x="242" y="275" width="10" height="10" rx="2" fill="#E6EDF3"/><rect x="242" y="288" width="10" height="10" rx="2" fill="#E6EDF3"/><rect x="242" y="301" width="10" height="10" rx="2" fill="#E6EDF3"/><rect x="242" y="314" width="10" height="10" rx="2" fill="#E6EDF3"/><rect x="255" y="236" width="10" height="10" rx="2" fill="#E6EDF3"/><rect x="255" y="249" width="10" height="10" rx="2" fill="#E6EDF3"/><rect x="255" y="262" width="10" height="10" rx="2" fill="#E6EDF3"/><rect x="255" y="275" width="10" height="10" rx="2" fill="#E6EDF3"/><rect x="255" y="288" width="10" height="10" rx="2" fill="#E6EDF3"/><rect x="255" y="301" width="10" height="10" rx="2" fill="#E6EDF3"/><rect x="255" y="314" width="10" height="10" rx="2" fill="#E6EDF3"/><rect x="268" y="236" width="10" height="10" rx="2" fill="#E6EDF3"/><rect x="268" y="249" width="10" height="10" rx="2" fill="#9BE9A8"/><rect x="268" y="262" width="10" height="10" rx="2" fill="#E6EDF3"/><rect x="268" y="275" width="10" height="10" rx="2" fill="#E6EDF3"/><rect x="268" y="288" width="10" height="10" rx="2" fill="#E6EDF3"/><rect x="268" y="301" width="10" height="10" rx="2" fill="#E6EDF3"/><rect x="268" y="314" width="10" height="10" rx="2" fill="#E6EDF3"/><rect x="281" y="236" width="10" height="10" rx="2" fill="#E6EDF3"/><rect x="281" y="249" width="10" height="10" rx="2" fill="#E6EDF3"/><rect x="281" y="262" width="10" height="10" rx="2" fill="#E6EDF3"/><rect x="281" y="275" width="10" height="10" rx="2" fill="#E6EDF3"/><rect x="281" y="288" width="10" height="10" rx="2" fill="#E6EDF3"/><rect x="281" y="301" width="10" height="10" rx="2" fill="#E6EDF3"/><rect x="281" y="314" width="10" height="10" rx="2" fill="#E6EDF3"/><rect x="294" y="236" width="10" height="10" rx="2" fill="#E6EDF3"/><rect x="294" y="249" width="10" height="10" rx="2" fill="#E6EDF3"/><rect x="294" y="262" width="10" height="10" rx="2" fill="#40C463"/><rect x="294" y="275" width="10" height="10" rx="2" fill="#E6EDF3"/><rect x="294" y="288" width="10" height="10" rx="2" fill="#E6EDF3"/><rect x="294" y="301" width="10" height="10" rx="2" fill="#E6EDF3"/><rect x="294" y="314" width="10" height="10" rx="2" fill="#E6EDF3"/><rect x="307" y="236" width="10" height="10" rx="2" fill="#E6EDF3"/><rect x="307" y="249" width="10" height="10" rx="2" fill="#E6EDF3"/><rect x="307" y="262" width="10" height="10" rx="2" fill="#E6EDF3"/><rect x="307" y="275" width="10" height="10" rx="2" fill="#E6EDF3"/><rect x="307" y="288" width="10" height="10" rx="2" fill="#E6EDF3"/><rect x="307" y="301" width="10" height="10" rx="2" fill="#E6EDF3"/><rect x="307" y="314" width="10" height="10" rx="2" fill="#E6EDF3"/><rect x="320" y="236" width="10" height="10" rx="2" fill="#E6EDF3"/><rect x="320" y="249" width="10" height="10" rx="2" fill="#E6EDF3"/><rect x="320" y="262" width="10" height="10" rx="2" fill="#E6EDF3"/><rect x="320" y="275" width="10" height="10" rx="2" fill="#E6EDF3"/><rect x="320" y="288" width="10" height="10" rx="2" fill="#E6EDF3"/><rect x="320" y="301" width="10" height="10" rx="2" fill="#E6EDF3"/><rect x="320" y="314" width="10" height="10" rx="2" fill="#E6EDF3"/><rect x="333" y="236" width="10" height="10" rx="2" fill="#E6EDF3"/><rect x="333" y="249" width="10" height="10" rx="2" fill="#E6EDF3"/><rect x="333" y="262" width="10" height="10" rx="2" fill="#E6EDF3"/><rect x="333" y="275" width="10" height="10" rx="2" fill="#E6EDF3"/><rect x="333" y="288" width="10" height="10" rx="2" fill="#E6EDF3"/><rect x="333" y="301" width="10" height="10" rx="2" fill="#E6EDF3"/><rect x="333" y="314" width="10" height="10" rx="2" fill="#E6EDF3"/><rect x="346" y="236" width="10" height="10" rx="2" fill="#E6EDF3"/><rect x="346" y="249" width="10" height="10" rx="2" fill="#9BE9A8"/><rect x="346" y="262" width="10" height="10" rx="2" fill="#E6EDF3"/><rect x="346" y="275" width="10" height="10" rx="2" fill="#E6EDF3"/><rect x="346" y="288" width="10" height="10" rx="2" fill="#E6EDF3"/><rect x="346" y="301" width="10" height="10" rx="2" fill="#E6EDF3"/><rect x="346" y="314" width="10" height="10" rx="2" fill="#E6EDF3"/><rect x="359" y="236" width="10" height="10" rx="2" fill="#E6EDF3"/><rect x="359" y="249" width="10" height="10" rx="2" fill="#E6EDF3"/><rect x="359" y="262" width="10" height="10" rx="2" fill="#E6EDF3"/><rect x="359" y="275" width="10" height="10" rx="2" fill="#E6EDF3"/><rect x="359" y="288" width="10" height="10" rx="2" fill="#E6EDF3"/><rect x="359" y="301" width="10" height="10" rx="2" fill="#E6EDF3"/><rect x="359" y="314" width="10" height="10" rx="2" fill="#E6EDF3"/><rect x="372" y="236" width="10" height="10" rx="2" fill="#E6EDF3"/><rect x="372" y="249" width="10" height="10" rx="2" fill="#E6EDF3"/><rect x="372" y="262" width="10" height="10" rx="2" fill="#E6EDF3"/><rect x="372" y="275" width="10" height="10" rx="2" fill="#E6EDF3"/><rect x="372" y="288" width="10" height="10" rx="2" fill="#E6EDF3"/><rect x="372" y="301" width="10" height="10" rx="2" fill="#E6EDF3"/><rect x="372" y="314" width="10" height="10" rx="2" fill="#E6EDF3"/><rect x="385" y="236" width="10" height="10" rx="2" fill="#E6EDF3"/><rect x="385" y="249" width="10" height="10" rx="2" fill="#E6EDF3"/><rect x="385" y="262" width="10" height="10" rx="2" fill="#E6EDF3"/><rect x="385" y="275" width="10" height="10" rx="2" fill="#E6EDF3"/><rect x="385" y="288" width="10" height="10" rx="2" fill="#E6EDF3"/><rect x="385" y="301" width="10" height="10" rx="2" fill="#E6EDF3"/><rect x="385" y="314" width="10" height="10" rx="2" fill="#E6EDF3"/><rect x="398" y="236" width="10" height="10" rx="2" fill="#E6EDF3"/><rect x="398" y="249" width="10" height="10" rx="2" fill="#E6EDF3"/><rect x="398" y="262" width="10" height="10" rx="2" fill="#E6EDF3"/><rect x="398" y="275" width="10" height="10" rx="2" fill="#E6EDF3"/><rect x="398" y="288" width="10" height="10" rx="2" fill="#9BE9A8"/><rect x="398" y="301" width="10" height="10" rx="2" fill="#E6EDF3"/><rect x="398" y="314" width="10" height="10" rx="2" fill="#E6EDF3"/><rect x="411" y="236" width="10" height="10" rx="2" fill="#E6EDF3"/><rect x="411" y="249" width="10" height="10" rx="2" fill="#E6EDF3"/><rect x="411" y="262" width="10" height="10" rx="2" fill="#E6EDF3"/><rect x="411" y="275" width="10" height="10" rx="2" fill="#E6EDF3"/><rect x="411" y="288" width="10" height="10" rx="2" fill="#E6EDF3"/><rect x="411" y="301" width="10" height="10" rx="2" fill="#E6EDF3"/><rect x="411" y="314" width="10" height="10" rx="2" fill="#E6EDF3"/><rect x="424" y="236" width="10" height="10" rx="2" fill="#E6EDF3"/><rect x="424" y="249" width="10" height="10" rx="2" fill="#E6EDF3"/><rect x="424" y="262" width="10" height="10" rx="2" fill="#E6EDF3"/><rect x="424" y="275" width="10" height="10" rx="2" fill="#E6EDF3"/><rect x="424" y="288" width="10" height="10" rx="2" fill="#E6EDF3"/><rect x="424" y="301" width="10" height="10" rx="2" fill="#E6EDF3"/><rect x="424" y="314" width="10" height="10" rx="2" fill="#E6EDF3"/><rect x="437" y="236" width="10" height="10" rx="2" fill="#E6EDF3"/><rect x="437" y="249" width="10" height="10" rx="2" fill="#E6EDF3"/><rect x="437" y="262" width="10" height="10" rx="2" fill="#E6EDF3"/><rect x="437" y="275" width="10" height="10" rx="2" fill="#E6EDF3"/><rect x="437" y="288" width="10" height="10" rx="2" fill="#E6EDF3"/><rect x="437" y="301" width="10" height="10" rx="2" fill="#E6EDF3"/><rect x="437" y="314" width="10" height="10" rx="2" fill="#E6EDF3"/><rect x="450" y="236" width="10" height="10" rx="2" fill="#E6EDF3"/><rect x="450" y="249" width="10" height="10" rx="2" fill="#E6EDF3"/><rect x="450" y="262" width="10" height="10" rx="2" fill="#E6EDF3"/><rect x="450" y="275" width="10" height="10" rx="2" fill="#E6EDF3"/><rect x="450" y="288" width="10" height="10" rx="2" fill="#9BE9A8"/><rect x="450" y="301" width="10" height="10" rx="2" fill="#E6EDF3"/><rect x="450" y="314" width="10" height="10" rx="2" fill="#9BE9A8"/><rect x="463" y="236" width="10" height="10" rx="2" fill="#E6EDF3"/><rect x="463" y="249" width="10" height="10" rx="2" fill="#E6EDF3"/><rect x="463" y="262" width="10" height="10" rx="2" fill="#E6EDF3"/><rect x="463" y="275" width="10" height="10" rx="2" fill="#E6EDF3"/><rect x="463" y="288" width="10" height="10" rx="2" fill="#E6EDF3"/><rect x="463" y="301" width="10" height="10" rx="2" fill="#E6EDF3"/><rect x="463" y="314" width="10" height="10" rx="2" fill="#E6EDF3"/><rect x="476" y="236" width="10" height="10" rx="2" fill="#E6EDF3"/><rect x="476" y="249" width="10" height="10" rx="2" fill="#E6EDF3"/><rect x="476" y="262" width="10" height="10" rx="2" fill="#E6EDF3"/><rect x="476" y="275" width="10" height="10" rx="2" fill="#E6EDF3"/><rect x="476" y="288" width="10" height="10" rx="2" fill="#E6EDF3"/><rect x="476" y="301" width="10" height="10" rx="2" fill="#E6EDF3"/><rect x="476" y="314" width="10" height="10" rx="2" fill="#E6EDF3"/><rect x="489" y="236" width="10" height="10" rx="2" fill="#E6EDF3"/><rect x="489" y="249" width="10" height="10" rx="2" fill="#E6EDF3"/><rect x="489" y="262" width="10" height="10" rx="2" fill="#E6EDF3"/><rect x="489" y="275" width="10" height="10" rx="2" fill="#E6EDF3"/><rect x="489" y="288" width="10" height="10" rx="2" fill="#E6EDF3"/><rect x="489" y="301" width="10" height="10" rx="2" fill="#E6EDF3"/><rect x="489" y="314" width="10" height="10" rx="2" fill="#E6EDF3"/><rect x="502" y="236" width="10" height="10" rx="2" fill="#E6EDF3"/><rect x="502" y="249" width="10" height="10" rx="2" fill="#E6EDF3"/><rect x="502" y="262" width="10" height="10" rx="2" fill="#E6EDF3"/><rect x="502" y="275" width="10" height="10" rx="2" fill="#E6EDF3"/><rect x="502" y="288" width="10" height="10" rx="2" fill="#E6EDF3"/><rect x="502" y="301" width="10" height="10" rx="2" fill="#E6EDF3"/><rect x="502" y="314" width="10" height="10" rx="2" fill="#E6EDF3"/><rect x="515" y="236" width="10" height="10" rx="2" fill="#E6EDF3"/><rect x="515" y="249" width="10" height="10" rx="2" fill="#E6EDF3"/><rect x="515" y="262" width="10" height="10" rx="2" fill="#E6EDF3"/><rect x="515" y="275" width="10" height="10" rx="2" fill="#E6EDF3"/><rect x="515" y="288" width="10" height="10" rx="2" fill="#E6EDF3"/><rect x="515" y="301" width="10" height="10" rx="2" fill="#E6EDF3"/><rect x="515" y="314" width="10" height="10" rx="2" fill="#E6EDF3"/><rect x="528" y="236" width="10" height="10" rx="2" fill="#E6EDF3"/><rect x="528" y="249" width="10" height="10" rx="2" fill="#E6EDF3"/><rect x="528" y="262" width="10" height="10" rx="2" fill="#E6EDF3"/><rect x="528" y="275" width="10" height="10" rx="2" fill="#E6EDF3"/><rect x="528" y="288" width="10" height="10" rx="2" fill="#E6EDF3"/><rect x="528" y="301" width="10" height="10" rx="2" fill="#E6EDF3"/><rect x="528" y="314" width="10" height="10" rx="2" fill="#E6EDF3"/><rect x="541" y="236" width="10" height="10" rx="2" fill="#E6EDF3"/><rect x="541" y="249" width="10" height="10" rx="2" fill="#E6EDF3"/><rect x="541" y="262" width="10" height="10" rx="2" fill="#E6EDF3"/><rect x="541" y="275" width="10" height="10" rx="2" fill="#E6EDF3"/><rect x="541" y="288" width="10" height="10" rx="2" fill="#E6EDF3"/><rect x="541" y="301" width="10" height="10" rx="2" fill="#E6EDF3"/><rect x="541" y="314" width="10" height="10" rx="2" fill="#E6EDF3"/><rect x="554" y="236" width="10" height="10" rx="2" fill="#E6EDF3"/><rect x="554" y="249" width="10" height="10" rx="2" fill="#E6EDF3"/><rect x="554" y="262" width="10" height="10" rx="2" fill="#E6EDF3"/><rect x="554" y="275" width="10" height="10" rx="2" fill="#E6EDF3"/><rect x="554" y="288" width="10" height="10" rx="2" fill="#E6EDF3"/><rect x="554" y="301" width="10" height="10" rx="2" fill="#E6EDF3"/><rect x="554" y="314" width="10" height="10" rx="2" fill="#E6EDF3"/><rect x="567" y="236" width="10" height="10" rx="2" fill="#E6EDF3"/><rect x="567" y="249" width="10" height="10" rx="2" fill="#E6EDF3"/><rect x="567" y="262" width="10" height="10" rx="2" fill="#E6EDF3"/><rect x="567" y="275" width="10" height="10" rx="2" fill="#E6EDF3"/><rect x="567" y="288" width="10" height="10" rx="2" fill="#E6EDF3"/><rect x="567" y="301" width="10" height="10" rx="2" fill="#E6EDF3"/><rect x="567" y="314" width="10" height="10" rx="2" fill="#E6EDF3"/><rect x="580" y="236" width="10" height="10" rx="2" fill="#E6EDF3"/><rect x="580" y="249" width="10" height="10" rx="2" fill="#E6EDF3"/><rect x="580" y="262" width="10" height="10" rx="2" fill="#E6EDF3"/><rect x="580" y="275" width="10" height="10" rx="2" fill="#E6EDF3"/><rect x="580" y="288" width="10" height="10" rx="2" fill="#E6EDF3"/><rect x="580" y="301" width="10" height="10" rx="2" fill="#E6EDF3"/><rect x="580" y="314" width="10" height="10" rx="2" fill="#E6EDF3"/><rect x="593" y="236" width="10" height="10" rx="2" fill="#E6EDF3"/><rect x="593" y="249" width="10" height="10" rx="2" fill="#E6EDF3"/><rect x="593" y="262" width="10" height="10" rx="2" fill="#E6EDF3"/><rect x="593" y="275" width="10" height="10" rx="2" fill="#E6EDF3"/><rect x="593" y="288" width="10" height="10" rx="2" fill="#E6EDF3"/><rect x="593" y="301" width="10" height="10" rx="2" fill="#E6EDF3"/><rect x="593" y="314" width="10" height="10" rx="2" fill="#E6EDF3"/><rect x="606" y="236" width="10" height="10" rx="2" fill="#E6EDF3"/><rect x="606" y="249" width="10" height="10" rx="2" fill="#E6EDF3"/><rect x="606" y="262" width="10" height="10" rx="2" fill="#E6EDF3"/><rect x="606" y="275" width="10" height="10" rx="2" fill="#E6EDF3"/><rect x="606" y="288" width="10" height="10" rx="2" fill="#E6EDF3"/><rect x="606" y="301" width="10" height="10" rx="2" fill="#E6EDF3"/><rect x="606" y="314" width="10" height="10" rx="2" fill="#E6EDF3"/><rect x="619" y="236" width="10" height="10" rx="2" fill="#E6EDF3"/><rect x="619" y="249" width="10" height="10" rx="2" fill="#E6EDF3"/><rect x="619" y="262" width="10" height="10" rx="2" fill="#E6EDF3"/><rect x="619" y="275" width="10" height="10" rx="2" fill="#E6EDF3"/><rect x="619" y="288" width="10" height="10" rx="2" fill="#E6EDF3"/><rect x="619" y="301" width="10" height="10" rx="2" fill="#E6EDF3"/><rect x="619" y="314" width="10" height="10" rx="2" fill="#E6EDF3"/><rect x="632" y="236" width="10" height="10" rx="2" fill="#E6EDF3"/><rect x="632" y="249" width="10" height="10" rx="2" fill="#E6EDF3"/><rect x="632" y="262" width="10" height="10" rx="2" fill="#E6EDF3"/><rect x="632" y="275" width="10" height="10" rx="2" fill="#E6EDF3"/><rect x="632" y="288" width="10" height="10" rx="2" fill="#E6EDF3"/><rect x="632" y="301" width="10" height="10" rx="2" fill="#E6EDF3"/><rect x="632" y="314" width="10" height="10" rx="2" fill="#E6EDF3"/><rect x="645" y="236" width="10" height="10" rx="2" fill="#E6EDF3"/><rect x="645" y="249" width="10" height="10" rx="2" fill="#E6EDF3"/><rect x="645" y="262" width="10" height="10" rx="2" fill="#E6EDF3"/><rect x="645" y="275" width="10" height="10" rx="2" fill="#E6EDF3"/><rect x="645" y="288" width="10" height="10" rx="2" fill="#E6EDF3"/><rect x="645" y="301" width="10" height="10" rx="2" fill="#E6EDF3"/><rect x="645" y="314" width="10" height="10" rx="2" fill="#E6EDF3"/><rect x="658" y="236" width="10" height="10" rx="2" fill="#E6EDF3"/><rect x="658" y="249" width="10" height="10" rx="2" fill="#E6EDF3"/><rect x="658" y="262" width="10" height="10" rx="2" fill="#E6EDF3"/><rect x="658" y="275" width="10" height="10" rx="2" fill="#E6EDF3"/><rect x="658" y="288" width="10" height="10" rx="2" fill="#E6EDF3"/><rect x="658" y="301" width="10" height="10" rx="2" fill="#E6EDF3"/><rect x="658" y="314" width="10" height="10" rx="2" fill="#E6EDF3"/><rect x="671" y="236" width="10" height="10" rx="2" fill="#E6EDF3"/><rect x="671" y="249" width="10" height="10" rx="2" fill="#E6EDF3"/><rect x="671" y="262" width="10" height="10" rx="2" fill="#E6EDF3"/><rect x="671" y="275" width="10" height="10" rx="2" fill="#E6EDF3"/><rect x="671" y="288" width="10" height="10" rx="2" fill="#E6EDF3"/><rect x="671" y="301" width="10" height="10" rx="2" fill="#40C463"/><rect x="671" y="314" width="10" height="10" rx="2" fill="#E6EDF3"/><rect x="684" y="236" width="10" height="10" rx="2" fill="#E6EDF3"/><rect x="684" y="249" width="10" height="10" rx="2" fill="#E6EDF3"/><rect x="684" y="262" width="10" height="10" rx="2" fill="#E6EDF3"/><rect x="684" y="275" width="10" height="10" rx="2" fill="#E6EDF3"/><rect x="684" y="288" width="10" height="10" rx="2" fill="#E6EDF3"/><rect x="684" y="301" width="10" height="10" rx="2" fill="#E6EDF3"/><rect x="684" y="314" width="10" height="10" rx="2" fill="#E6EDF3"/><rect x="697" y="236" width="10" height="10" rx="2" fill="#E6EDF3"/><rect x="697" y="249" width="10" height="10" rx="2" fill="#E6EDF3"/><rect x="697" y="262" width="10" height="10" rx="2" fill="#E6EDF3"/><rect x="697" y="275" width="10" height="10" rx="2" fill="#E6EDF3"/><rect x="697" y="288" width="10" height="10" rx="2" fill="#E6EDF3"/><rect x="697" y="301" width="10" height="10" rx="2" fill="#9BE9A8"/><rect x="697" y="314" width="10" height="10" rx="2" fill="#E6EDF3"/><rect x="710" y="236" width="10" height="10" rx="2" fill="#E6EDF3"/><rect x="710" y="249" width="10" height="10" rx="2" fill="#E6EDF3"/><rect x="710" y="262" width="10" height="10" rx="2" fill="#9BE9A8"/><rect x="710" y="275" width="10" height="10" rx="2" fill="#E6EDF3"/><rect x="710" y="288" width="10" height="10" rx="2" fill="#9BE9A8"/><rect x="710" y="301" width="10" height="10" rx="2" fill="#40C463"/><rect x="710" y="314" width="10" height="10" rx="2" fill="#40C463"/><rect x="723" y="236" width="10" height="10" rx="2" fill="#9BE9A8"/><rect x="723" y="249" width="10" height="10" rx="2" fill="#216E39"/><rect x="723" y="262" width="10" height="10" rx="2" fill="#E6EDF3"/><rect x="723" y="275" width="10" height="10" rx="2" fill="#E6EDF3"/><rect x="723" y="288" width="10" height="10" rx="2" fill="#E6EDF3"/><rect x="723" y="301" width="10" height="10" rx="2" fill="#E6EDF3"/><rect x="723" y="314" width="10" height="10" rx="2" fill="#E6EDF3"/><rect x="736" y="236" width="10" height="10" rx="2" fill="#E6EDF3"/><rect x="736" y="249" width="10" height="10" rx="2" fill="#E6EDF3"/><rect x="736" y="262" width="10" height="10" rx="2" fill="#E6EDF3"/><rect x="736" y="275" width="10" height="10" rx="2" fill="#E6EDF3"/>

  <text x="864" y="86" class="h2">AI 年度总结</text><text x="864" y="124" class="p">你在 2025 年保持了稳定的 GitHub 活跃度，全年贡献</text><text x="864" y="152" class="p">72 次，日均 0 次。</text><text x="864" y="182" class="small">模式：规则降级</text><text x="864" y="224" class="h3">活跃节奏</text><text x="864" y="246" class="small">贡献峰值集中在 12月，最长连续打卡 5 天。</text><text x="864" y="290" class="h3">高光时刻</text><text x="864" y="312" class="small">12 月 22 日 达到 17 次贡献</text>

  <text x="44" y="438" class="h3">这一年的高光月份</text>
  <text x="444" y="438" class="h3" text-anchor="end">2025 年 12 月</text>

  <text x="500" y="438" class="h3">日均贡献</text>
  <text x="900" y="438" class="h3" text-anchor="end">0</text>

  <text x="956" y="438" class="h3">2025 年碰过的 Issues</text>
  <text x="1356" y="438" class="h3" text-anchor="end">2</text>

  <text x="44" y="516" class="h3">你最活跃的一天</text>
  
    <text x="44" y="572" class="num">17</text>
    <text x="111" y="572" class="p">次贡献</text>
  
  <text x="44" y="604" class="p">12 月 22 日</text>

  <text x="500" y="516" class="h3">最长连续打卡</text>
  
    <text x="500" y="572" class="num">5</text>
    <text x="543" y="572" class="p">天</text>
  
  <text x="500" y="604" class="p">12 月 18 日 - 12 月 22 日</text>

  <text x="956" y="516" class="h3">休息最久的一段时间</text>
  
    <text x="956" y="572" class="num">117</text>
    <text x="1048" y="572" class="p">天</text>
  
  <text x="956" y="604" class="p">8 月 3 日 - 11 月 27 日</text>

  <text x="44" y="676" class="h2">2025 年你在折腾的仓库</text>
  <rect x="444" y="646" width="70" height="34" rx="10" class="badge"/>
  <text x="479" y="669" class="small" text-anchor="middle">最出圈的</text>
  <rect x="522" y="646" width="70" height="34" rx="10" class="badge"/>
  <text x="557" y="669" class="small" text-anchor="middle">新开的</text>
  
        <text x="44" y="726" class="h3">Yuki-zik/yuki-zik.github.io</text>
        <text x="44" y="754" class="small">Stars 0 · Fork 0 · Commits 19</text>
        <text x="44" y="782" class="p">暂无仓库描述</text>
      
        <text x="44" y="812" class="h3">Yuki-zik/----</text>
        <text x="44" y="840" class="small">Stars 0 · Fork 0 · Commits 4</text>
        <text x="44" y="868" class="p">暂无仓库描述</text>
      
        <text x="44" y="898" class="h3">Yuki-zik/Information-Hiding-Practive</text>
        <text x="44" y="926" class="small">Stars 0 · Fork 0 · Commits 2</text>
        <text x="44" y="954" class="p">信息隐藏实践</text>
      

  <text x="640" y="676" class="h2">2025 年你最常用的语言</text>
  
        <text x="640" y="726" class="h3">#1 Python</text>
        <rect x="810" y="708" width="526" height="10" rx="5" fill="#E6EDF5"/>
        <rect x="810" y="708" width="292" height="10" rx="5" fill="#1F2937"/>
        <text x="1356" y="726" class="small" text-anchor="end">55.4%</text>
      
        <text x="640" y="770" class="h3">#2 TypeScript</text>
        <rect x="810" y="752" width="526" height="10" rx="5" fill="#E6EDF5"/>
        <rect x="810" y="752" width="75" height="10" rx="5" fill="#1F2937"/>
        <text x="1356" y="770" class="small" text-anchor="end">14.3%</text>
      
        <text x="640" y="814" class="h3">#3 JavaScript</text>
        <rect x="810" y="796" width="526" height="10" rx="5" fill="#E6EDF5"/>
        <rect x="810" y="796" width="65" height="10" rx="5" fill="#1F2937"/>
        <text x="1356" y="814" class="small" text-anchor="end">12.3%</text>
      
        <text x="640" y="858" class="h3">#4 C</text>
        <rect x="810" y="840" width="526" height="10" rx="5" fill="#E6EDF5"/>
        <rect x="810" y="840" width="48" height="10" rx="5" fill="#1F2937"/>
        <text x="1356" y="858" class="small" text-anchor="end">9.2%</text>
      
        <text x="640" y="902" class="h3">#5 Monkey C</text>
        <rect x="810" y="884" width="526" height="10" rx="5" fill="#E6EDF5"/>
        <rect x="810" y="884" width="22" height="10" rx="5" fill="#1F2937"/>
        <text x="1356" y="902" class="small" text-anchor="end">4.1%</text>
      

  <text x="44" y="980" class="h2">2025 一年的起伏轨迹</text>
  <text x="672" y="980" class="small" text-anchor="end">总贡献 72</text>
  
      <line x1="48" y1="1119" x2="668" y2="1119" class="line"/><line x1="48" y1="1084" x2="668" y2="1084" class="line"/><line x1="48" y1="1049" x2="668" y2="1049" class="line"/>
      <g clip-path="url(#monthlyPlotClip)"><rect x="48.00" y="1154" width="36" height="0" rx="6" fill="#6EE7B7"/><rect x="101.09" y="1146" width="36" height="8" rx="6" fill="#6EE7B7"/><rect x="154.18" y="1146" width="36" height="8" rx="6" fill="#6EE7B7"/><rect x="207.27" y="1105" width="36" height="49" rx="6" fill="#6EE7B7"/><rect x="260.36" y="1128" width="36" height="26" rx="6" fill="#6EE7B7"/><rect x="313.45" y="1148" width="36" height="6" rx="6" fill="#6EE7B7"/><rect x="366.55" y="1143" width="36" height="11" rx="6" fill="#6EE7B7"/><rect x="419.64" y="1148" width="36" height="6" rx="6" fill="#6EE7B7"/><rect x="472.73" y="1154" width="36" height="0" rx="6" fill="#6EE7B7"/><rect x="525.82" y="1154" width="36" height="0" rx="6" fill="#6EE7B7"/><rect x="578.91" y="1131" width="36" height="23" rx="6" fill="#6EE7B7"/><rect x="632.00" y="1014" width="36" height="140" rx="6" fill="url(#bar)"/></g>
      <text x="66.00" y="1180" class="small" text-anchor="middle">1月</text><text x="119.09" y="1180" class="small" text-anchor="middle">2月</text><text x="172.18" y="1180" class="small" text-anchor="middle">3月</text><text x="225.27" y="1180" class="small" text-anchor="middle">4月</text><text x="278.36" y="1180" class="small" text-anchor="middle">5月</text><text x="331.45" y="1180" class="small" text-anchor="middle">6月</text><text x="384.55" y="1180" class="small" text-anchor="middle">7月</text><text x="437.64" y="1180" class="small" text-anchor="middle">8月</text><text x="490.73" y="1180" class="small" text-anchor="middle">9月</text><text x="543.82" y="1180" class="small" text-anchor="middle">10月</text><text x="596.91" y="1180" class="small" text-anchor="middle">11月</text><text x="650.00" y="1180" class="small" text-anchor="middle">12月</text>
    

  <text x="728" y="980" class="h2">2025 你一周里的节奏</text>
  <text x="1356" y="980" class="small" text-anchor="end">最忙：星期一（31 次贡献）</text>
  
      <line x1="732" y1="1119" x2="1352" y2="1119" class="line"/><line x1="732" y1="1084" x2="1352" y2="1084" class="line"/><line x1="732" y1="1049" x2="1352" y2="1049" class="line"/>
      <g clip-path="url(#weeklyPlotClip)"><rect x="732.00" y="1127" width="70" height="27" rx="6" fill="#6EE7B7"/><rect x="823.67" y="1014" width="70" height="140" rx="6" fill="url(#bar)"/><rect x="915.33" y="1113" width="70" height="41" rx="6" fill="#6EE7B7"/><rect x="1007.00" y="1154" width="70" height="0" rx="6" fill="#6EE7B7"/><rect x="1098.67" y="1127" width="70" height="27" rx="6" fill="#6EE7B7"/><rect x="1190.33" y="1091" width="70" height="63" rx="6" fill="#6EE7B7"/><rect x="1282.00" y="1127" width="70" height="27" rx="6" fill="#6EE7B7"/></g>
      <text x="767.00" y="1180" class="small" text-anchor="middle">日</text><text x="858.67" y="1180" class="small" text-anchor="middle">一</text><text x="950.33" y="1180" class="small" text-anchor="middle">二</text><text x="1042.00" y="1180" class="small" text-anchor="middle">三</text><text x="1133.67" y="1180" class="small" text-anchor="middle">四</text><text x="1225.33" y="1180" class="small" text-anchor="middle">五</text><text x="1317.00" y="1180" class="small" text-anchor="middle">六</text>
    
</svg>